<svg width="400" height="400" viewBox="0 0 400 400" xmlns="http://www.w3.org/2000/svg">
  <defs>
    <style>
      @keyframes typing {
        0% { transform: translateY(0); }
        25% { transform: translateY(3px); }
        50% { transform: translateY(0); }
        75% { transform: translateY(3px); }
        100% { transform: translateY(0); }
      }
      @keyframes breathing {
        0% { transform: translateY(0); }
        50% { transform: translateY(1px); }
        100% { transform: translateY(0); }
      }
      @keyframes screenGlow {
        0% { fill: #2c3e50; filter: brightness(1); }
        50% { fill: #34495e; filter: brightness(1.2); }
        100% { fill: #2c3e50; filter: brightness(1); }
      }
      .typing-hand {
        animation: typing 1s infinite ease-in-out;
      }
      .breathing {
        animation: breathing 3s infinite ease-in-out;
      }
      .screen-glow {
        animation: screenGlow 2s infinite ease-in-out;
      }
    </style>
  </defs>

  <!-- Dark Background -->
  <rect width="400" height="400" fill="#1a1a1a"/>

  <!-- Chair-Desk Hybrid -->
  <!-- Main Seat Surface -->
  <rect x="150" y="250" width="100" height="15" fill="#4a3728"/>
  <!-- Chair Back -->
  <rect x="150" y="220" width="15" height="30" fill="#4a3728"/>
  <!-- Left Leg -->
  <rect x="155" y="265" width="10" height="85" fill="#4a3728"/>
  <!-- Right Leg -->
  <rect x="235" y="265" width="10" height="85" fill="#4a3728"/>
  <!-- Arm Rest / Small Work Surface -->
  <rect x="165" y="230" width="85" height="10" fill="#4a3728"/>
  
  <!-- Person -->
  <g class="breathing" transform="translate(0,0)">    
    <!-- Body -->
    <g id="person-typing">
      <circle cx="200" cy="150" r="30" fill="#f5cba7"/> <!-- Head -->
      <rect x="170" y="180" width="60" height="80" fill="#d35400" rx="5"/> <!-- Body -->
      <rect x="170" y="260" width="12" height="40" fill="#2c3e50" rx="2"/> <!-- Left Leg -->
      <rect x="218" y="260" width="12" height="40" fill="#2c3e50" rx="2"/> <!-- Right Leg -->
      
      <!-- Arms and Hands -->
      <rect x="165" y="190" width="15" height="40" fill="#d35400" rx="2"/> <!-- Left Arm -->
      <rect x="220" y="190" width="15" height="40" fill="#d35400" rx="2"/> <!-- Right Arm -->
      <rect class="typing-hand" x="160" y="200" width="12" height="20" fill="#f5cba7" rx="2"/> <!-- Left Hand -->
      <rect class="typing-hand" x="228" y="200" width="12" height="20" fill="#f5cba7" rx="2"/> <!-- Right Hand -->
    </g>
  </g>

  <!-- Laptop -->
  <g transform="translate(0,0)">
    <!-- Laptop Base -->
    <rect x="170" y="230" width="60" height="30" class="screen-glow" stroke="#000" stroke-width="2" rx="3"/>
    <!-- Laptop Screen -->
    <rect x="165" y="190" width="70" height="45" fill="#1a1a1a" stroke="#34495e" stroke-width="2" rx="3"/>
    <!-- Screen Content (simplified) -->
    <rect x="170" y="195" width="60" height="35" fill="#2c3e50" opacity="0.9"/>
    <rect x="175" y="200" width="40" height="3" fill="#ecf0f1" opacity="0.7"/>
    <rect x="175" y="207" width="35" height="3" fill="#ecf0f1" opacity="0.7"/>
    <rect x="175" y="214" width="45" height="3" fill="#ecf0f1" opacity="0.7"/>
  </g>
</svg>